<?xml version="1.0" encoding="UTF-8"?>
<svg id="Layer_1" xmlns="http://www.w3.org/2000/svg" version="1.1" viewBox="0 0 851.09 543.23">
  <!-- Generator: Adobe Illustrator 29.7.1, SVG Export Plug-In . SVG Version: 2.1.1 Build 8)  -->
  <defs>
    <style>
      .st0 {
        fill: #003d38;
      }

      .st1 {
        fill: #bfd961;
      }
    </style>
  </defs>
  <path class="st0" d="M146.51,446.07l41.6,6.54.09-16.13-18.67-2.47"/>
  <g>
    <g>
      <path class="st0" d="M58.46,361.16c-7.11,0-13,1.42-17.67,4.26s-8.23,7.08-10.66,12.72c-2.44,5.64-3.66,12.57-3.66,20.79s1.24,14.93,3.73,20.41,6.12,9.6,10.89,12.34c4.77,2.74,10.82,4.11,18.13,4.11,6.3,0,13.25-.91,20.87-2.74l1.83,1.52v11.88c-8.43,2.44-17.01,3.66-25.74,3.66-10.26,0-19.09-2.03-26.51-6.09-7.41-4.06-13.1-9.9-17.06-17.52s-5.94-16.76-5.94-27.42,2.06-20.06,6.17-27.88,9.95-13.84,17.52-18.05c7.56-4.21,16.53-6.32,26.89-6.32,7.62,0,15.08,1.07,22.39,3.2v12.19l-1.98,1.68c-6.81-1.83-13.21-2.74-19.2-2.74Z"/>
      <path class="st0" d="M100.5,436.56c-8.43-9.04-12.64-21.73-12.64-38.08s4.16-29.17,12.49-38.16,20.11-13.48,35.34-13.48,26.68,4.49,34.96,13.48,12.42,21.71,12.42,38.16-4.14,29.05-12.42,38.08c-8.28,9.04-19.88,13.56-34.81,13.56s-26.91-4.52-35.34-13.56ZM156.11,425.97c4.87-6.55,7.31-15.71,7.31-27.5s-2.44-21.07-7.31-27.57-11.68-9.75-20.41-9.75-16,3.23-20.87,9.67c-4.87,6.45-7.31,15.67-7.31,27.65s2.49,20.95,7.46,27.5c4.97,6.55,11.88,9.83,20.72,9.83,8.73,0,15.53-3.28,20.41-9.83Z"/>
      <path class="st0" d="M267.77,432.98c-2.95,5.74-7.31,10.03-13.1,12.87-5.79,2.84-12.95,4.26-21.48,4.26-12.49,0-21.96-3.22-28.41-9.67-6.45-6.45-9.67-15.97-9.67-28.56v-63.22h18.74v64.89c0,7.62,1.62,13.25,4.88,16.91,3.25,3.66,8.23,5.48,14.93,5.48s11.88-1.85,14.93-5.56,4.57-9.32,4.57-16.83v-64.89h19.04v63.22c-.02,8.33-1.49,15.37-4.43,21.1Z"/>
    </g>
    <g>
      <path class="st0" d="M304.04,448.64h-18.27v-50.06c0-5.32-.18-10.16-.54-14.51-.36-4.35-.95-8.37-1.77-12.05l14.28-2.92,6.3,17.05v62.49ZM310.72,371.86c5.07-2.25,10.31-3.38,15.74-3.38,9.21,0,16.12,2.41,20.73,7.22s6.91,12.08,6.91,21.81v51.14h-18.27v-49.75c0-5.12-1.15-8.91-3.46-11.36s-6.02-3.69-11.13-3.69c-3.07,0-6.35.44-9.83,1.31-3.48.87-6.4,2.13-8.75,3.76l-5.68-6.45c4.09-4.82,8.68-8.36,13.74-10.61Z"/>
      <path class="st0" d="M366.7,355.43c-2.25-2.15-3.38-4.86-3.38-8.14s1.13-6.12,3.38-8.22,5.12-3.15,8.6-3.15,6.5,1.05,8.75,3.15c2.25,2.1,3.38,4.84,3.38,8.22s-1.13,5.99-3.38,8.14-5.17,3.22-8.75,3.22c-3.49,0-6.35-1.07-8.6-3.22ZM366.08,370.48h18.27v78.17h-18.27v-78.17Z"/>
      <path class="st0" d="M470.5,370.48v5.07l-27.64,73.1h-19.66l-27.64-73.1v-5.07h18.73l21.5,68.34h-5.22l21.96-68.34h17.97Z"/>
      <path class="st0" d="M485.32,440.04c-6.91-6.96-10.37-17.2-10.37-30.71,0-8.29,1.43-15.48,4.3-21.58,2.86-6.09,7.09-10.83,12.67-14.21s12.31-5.07,20.19-5.07c10.44,0,18.43,2.84,23.96,8.52,5.53,5.68,8.29,13.8,8.29,24.34v14.43h-55.44v-11.36h42.38l-4.15,2.92v-5.68c0-6.45-1.31-11.29-3.92-14.51-2.61-3.22-6.53-4.84-11.75-4.84-5.63,0-10.06,2.33-13.28,6.99s-4.84,10.78-4.84,18.35v4.45c.31,8.29,2.53,14.41,6.68,18.35s10.16,5.91,18.04,5.91,14.9-.92,21.65-2.76l2.3,1.84v11.98c-3.58,1.02-7.7,1.79-12.36,2.3s-9.6.77-14.82.77c-12.76.01-22.62-3.46-29.53-10.43Z"/>
      <path class="st0" d="M555.92,384.07c-.36-4.35-.95-8.37-1.77-12.05l14.28-2.92,5.07,14.44,1.23,2.92v62.19h-18.27v-50.06c0-5.33-.19-10.17-.54-14.52ZM579.8,373.32c5.12-3.23,10.6-4.84,16.43-4.84,2.46,0,4.96.36,7.52,1.08v12.9l-2.15,2.15c-2.46-.51-5.12-.77-7.99-.77-4.2,0-8.17.69-11.9,2.07-3.74,1.38-6.53,3.35-8.37,5.91l-7.22-3.69c4-6.65,8.55-11.59,13.68-14.81Z"/>
      <path class="st0" d="M651.76,383.38c-3.07-.61-5.99-.92-8.75-.92-4.2,0-7.37.74-9.52,2.23s-3.23,3.71-3.23,6.68c0,1.84.59,3.41,1.77,4.68,1.18,1.28,2.66,2.36,4.45,3.22,1.79.87,4.17,1.72,7.14,2.53,4.61,1.54,8.39,3.07,11.36,4.61s5.55,3.87,7.76,6.99c2.2,3.12,3.3,7.35,3.3,12.67,0,7.88-2.89,13.92-8.68,18.12-5.78,4.2-13.9,6.3-24.34,6.3-7.58,0-15.05-1.02-22.42-3.07v-13.21l1.69-1.38c3.58,1.33,6.99,2.25,10.21,2.76s6.73.77,10.52.77c9.31,0,13.97-3.02,13.97-9.06,0-1.94-.59-3.56-1.77-4.84s-2.69-2.35-4.53-3.23c-1.84-.87-4.3-1.77-7.37-2.69-4.51-1.54-8.24-3.07-11.21-4.61s-5.5-3.84-7.6-6.91c-2.1-3.07-3.15-7.11-3.15-12.13,0-7.68,2.74-13.67,8.22-17.97s13.18-6.45,23.11-6.45c3.38,0,6.78.26,10.21.77,3.43.51,6.83,1.28,10.21,2.3v13.21l-1.69,1.38c-3.37-1.22-6.59-2.14-9.66-2.75Z"/>
      <path class="st0" d="M677.71,355.43c-2.25-2.15-3.38-4.86-3.38-8.14s1.13-6.12,3.38-8.22,5.12-3.15,8.6-3.15,6.5,1.05,8.75,3.15c2.25,2.1,3.38,4.84,3.38,8.22s-1.13,5.99-3.38,8.14-5.17,3.22-8.75,3.22c-3.49,0-6.35-1.07-8.6-3.22ZM677.09,370.48h18.27v78.17h-18.27v-78.17Z"/>
      <path class="st0" d="M706.27,372.78l12.44-2.3h41.92v14.13h-54.36v-11.83ZM739.28,434.21c1.54,1.44,3.89,2.15,7.06,2.15,3.58,0,7.88-.41,12.9-1.23l1.54,1.38v11.52c-6.25,1.64-12.08,2.46-17.51,2.46-7.99,0-14.08-1.94-18.27-5.84-4.2-3.89-6.3-9.83-6.3-17.81v-76.02h18.27v76.01c.01,3.49.78,5.95,2.31,7.38Z"/>
      <path class="st0" d="M845.49,370.48v5.22l-40.39,107.34h-17.66v-4.91l16.59-35.47,1.69,5.99h-7.68l-27.64-72.94v-5.22h18.73l21.5,69.87h-5.07l21.96-69.87h17.97Z"/>
    </g>
  </g>
  <g>
    <path class="st0" d="M221.14,476.16l-13.32,38.96-.7,1.89-6.86,20.08h-7.16v-.7l23.06-64.3h8.05l23.06,64.3v.7h-7.65l-6.66-19.58-.79-2.49-13.02-37.97,1.99-.89ZM203.95,519.39v-5.86h32.2v5.86h-32.2Z"/>
    <path class="st0" d="M299.11,527.29c-1.76,3.61-4.37,6.31-7.85,8.1s-7.8,2.68-12.97,2.68c-7.82,0-13.63-1.99-17.44-5.96-3.81-3.98-5.71-10.04-5.71-18.19v-41.84h7.35v41.94c0,6.29,1.29,10.93,3.88,13.91,2.58,2.98,6.59,4.47,12.03,4.47s9.54-1.49,12.13-4.47,3.88-7.62,3.88-13.91v-41.94h7.35v41.84c-.01,5.31-.89,9.76-2.65,13.37Z"/>
    <path class="st0" d="M343.49,477.35c-2.58-.4-5.04-.6-7.35-.6-4.77,0-8.43.98-10.98,2.93-2.55,1.96-3.83,4.82-3.83,8.6,0,2.65.66,4.8,1.99,6.46,1.32,1.66,2.95,2.92,4.87,3.78,1.92.86,4.57,1.86,7.95,2.98,3.91,1.19,7.07,2.39,9.49,3.58s4.47,2.98,6.16,5.37c1.69,2.38,2.53,5.6,2.53,9.64,0,5.9-2.09,10.37-6.26,13.42s-10.24,4.57-18.19,4.57c-2.98,0-5.9-.17-8.75-.5s-5.5-.83-7.95-1.49v-5.37l.99-.6c2.32.73,4.85,1.29,7.6,1.69s5.58.6,8.5.6c5.63,0,9.79-.96,12.47-2.88s4.03-4.93,4.03-9.04c0-2.65-.66-4.82-1.99-6.51s-2.95-2.96-4.87-3.83c-1.92-.86-4.61-1.89-8.05-3.08-3.84-1.26-6.97-2.48-9.39-3.68-2.42-1.19-4.46-2.96-6.11-5.32-1.66-2.35-2.48-5.48-2.48-9.39,0-5.63,1.99-9.99,5.96-13.07s9.54-4.62,16.7-4.62c2.45,0,4.98.18,7.6.55s5.08.88,7.4,1.54v5.27l-.89.6c-2.18-.67-4.56-1.2-7.15-1.6Z"/>
    <path class="st0" d="M362.57,477.95v-5.86h47.81v5.86h-47.81ZM390.1,476.16v60.92h-7.26v-60.92h7.26Z"/>
    <path class="st0" d="M426.68,509.15v-5.57h12.22c4.97,0,8.68-1.27,11.13-3.83,2.45-2.55,3.68-5.78,3.68-9.69s-1.16-6.99-3.48-9.04-6.26-3.08-11.83-3.08h-10.44l1.29-1.89v61.02h-7.35v-65h16.2c8.41,0,14.38,1.51,17.89,4.52,3.51,3.02,5.27,7.47,5.27,13.37,0,4.9-1.49,9.03-4.47,12.37-2.98,3.35-7.06,5.32-12.22,5.91l-2.68.89h-15.21v.02ZM444.96,504.28l21.67,32.2v.6h-8.15l-19.28-29.42,5.76-3.38Z"/>
    <path class="st0" d="M504,476.16l-13.32,38.96-.7,1.89-6.86,20.08h-7.16v-.7l23.06-64.3h8.05l23.06,64.3v.7h-7.65l-6.66-19.58-.79-2.49-13.02-37.97,1.99-.89ZM486.81,519.39v-5.86h32.2v5.86h-32.2Z"/>
    <path class="st0" d="M544.15,531.22h33.89v5.86h-37.67v-65h7.35v62.52l-3.57-3.38Z"/>
    <path class="st0" d="M591.56,472.08h7.35v65h-7.35v-65Z"/>
    <path class="st0" d="M639.07,476.16l-13.32,38.96-.7,1.89-6.86,20.08h-7.16v-.7l23.06-64.3h8.05l23.06,64.3v.7h-7.65l-6.66-19.58-.79-2.49-13.02-37.97,1.99-.89ZM621.87,519.39v-5.86h32.2v5.86h-32.2Z"/>
  </g>
  <g>
    <path class="st1" d="M336.39,158.96c-12.45-35.71-20.18-78.49-20.24-130.74,0-.61.46-1.12,1.06-1.19l204.42-21.19c.99-.1,1.67,1,1.12,1.83-11.65,17.71-25.09,34.61-40.24,50.58-47.72,50.34-103.38,82.47-144.52,101.4-.62.29-1.37-.03-1.6-.69Z"/>
    <path class="st1" d="M420.43,193.9c22.46,7.99,44.02,18.41,64.53,31.15.55.34.73,1.08.39,1.63-14.51,23.86-32.87,46.63-56.07,66.49-.46.39-1.14.38-1.59-.03-30.5-28.37-62.14-63.75-83.89-114.96-.35-.83.33-1.76,1.23-1.66,26,2.97,51.25,8.78,75.4,17.38Z"/>
    <path class="st1" d="M493.94,211.62c-.32.6-1.09.81-1.67.45-21.25-13.16-43.59-23.92-66.86-32.2-18.97-6.75-38.61-11.86-58.7-15.29-1.12-.19-1.36-1.68-.35-2.2,39.01-20.18,85.8-50.45,126.97-93.87,16.76-17.66,31.5-36.42,44.15-56.13.63-.99,2.16-.57,2.17.61.38,28.06-2.23,117.32-45.71,198.63Z"/>
  </g>
</svg>
